<svg width="185" height="60" fill="none" xmlns="http://www.w3.org/2000/svg"><path d="M8 0h169c4.4 0 8 3.6 8 8v44c0 4.4-3.6 8-8 8H8c-4.4 0-8-3.6-8-8V8c0-4.4 3.6-8 8-8z" fill="#240C39"/><path d="M71.4 37.3h-5.7l-1.4 4.1H62l5.4-15.1h2.5l5.4 15.1h-2.4l-1.5-4.1zm-5-1.9h4.5l-2.2-6.6h-.1l-2.2 6.6zm20.5.5c0 3.4-1.8 5.6-4.5 5.6-1.4.1-2.7-.7-3.4-1.9h-.1V45h-2.2V30.3h2.2v1.8c.7-1.2 2-2 3.5-1.9 2.6 0 4.5 2.2 4.5 5.7zm-2.3 0c0-2.2-1.1-3.7-2.9-3.7-1.7 0-2.8 1.5-2.8 3.7s1.1 3.7 2.8 3.7c1.7 0 2.9-1.5 2.9-3.7zm14.2 0c0 3.4-1.8 5.6-4.5 5.6-1.4.1-2.7-.7-3.4-1.9h-.1V45h-2.2V30.3h2.2v1.8c.7-1.2 2-2 3.5-1.9 2.7 0 4.5 2.2 4.5 5.7zm-2.3 0c0-2.2-1.1-3.7-2.9-3.7-1.7 0-2.8 1.5-2.8 3.7s1.1 3.7 2.8 3.7c1.8 0 2.9-1.5 2.9-3.7zm10.2 1.2c.2 1.5 1.6 2.5 3.6 2.5 1.9 0 3.2-1 3.2-2.3 0-1.2-.8-1.9-2.7-2.4l-1.9-.5c-2.7-.7-4-2-4-4.1 0-2.6 2.2-4.4 5.4-4.4 3.1 0 5.3 1.8 5.4 4.4h-2.2c-.1-1.5-1.4-2.4-3.2-2.4-1.8 0-3 .9-3 2.3 0 1.1.8 1.7 2.7 2.2l1.6.4c3.1.7 4.3 2 4.3 4.2 0 2.8-2.2 4.6-5.7 4.6-3.3 0-5.5-1.7-5.7-4.5h2.2zm14-9.4v2.6h2.1v1.8h-2.1v6.1c0 .9.4 1.4 1.3 1.4.2 0 .5 0 .7-.1v1.8c-.4.1-.8.1-1.2.1-2.2 0-3.1-.8-3.1-3v-6.3h-1.6v-1.8h1.6v-2.6h2.3zm3.2 8.2c0-3.5 2-5.6 5.1-5.6 3.1 0 5.1 2.2 5.1 5.6 0 3.5-2 5.6-5.1 5.6-3.1 0-5.1-2.2-5.1-5.6zm8 0c0-2.4-1.1-3.8-2.9-3.8-1.8 0-2.9 1.4-2.9 3.8s1.1 3.8 2.9 3.8c1.9-.1 2.9-1.5 2.9-3.8zm4.2-5.6h2.1v1.9h.1c.3-1.2 1.4-2 2.6-2 .3 0 .5 0 .8.1v2.1c-.3-.1-.7-.1-1-.1-.7 0-1.3.2-1.7.7-.4.5-.7 1.1-.6 1.8v6.5h-2.2l-.1-11zm15.8 7.8c-.3 2-2.2 3.4-4.7 3.4-3.2 0-5.1-2.1-5.1-5.6 0-3.5 2-5.7 5-5.7s4.9 2.1 4.9 5.4v.8h-7.7v.1c-.1.8.2 1.6.8 2.2.6.6 1.3.9 2.2.9 1.1.1 2.1-.5 2.5-1.5h2.1zm-7.6-3.3h5.4c0-.7-.2-1.5-.7-2-.5-.5-1.2-.8-1.9-.8s-1.4.3-2 .8c-.5.6-.8 1.3-.8 2zM65.6 16.4c1-.1 1.9.3 2.5 1 .7.7 1 1.7.8 2.7 0 2.4-1.2 3.8-3.4 3.8H63v-7.5h2.6zm-1.5 6.4h1.3c.7 0 1.3-.2 1.8-.8.5-.5.7-1.2.6-1.9.1-.7-.1-1.4-.6-1.9-.4-.5-1.1-.8-1.8-.8h-1.3v5.4zm6.1-1.8c-.1-1 .4-2 1.2-2.5.8-.5 1.9-.5 2.7 0 .8.5 1.3 1.5 1.2 2.5.1 1-.4 2-1.2 2.5-.8.5-1.9.5-2.7 0-.8-.5-1.3-1.4-1.2-2.5zm4 0c0-1.2-.5-1.9-1.4-1.9-.9 0-1.4.7-1.4 1.9s.5 2 1.4 2c.9 0 1.4-.7 1.4-2zm7.9 2.9H81l-1.1-4.2h-.1l-1.1 4.2h-1.1l-1.5-5.7h1.1l1 4.3h.1l1.1-4.3h1l1.1 4.3h.1l1-4.3h1.1c-.1 0-1.6 5.7-1.6 5.7zm2.7-5.7h1v.9h.1c.3-.7.9-1.1 1.6-1 .5 0 1.1.2 1.4.6.4.4.5 1 .5 1.5v3.7h-1.1v-3.4c0-.9-.4-1.4-1.2-1.4-.4 0-.7.1-1 .4-.3.3-.4.7-.3 1v3.3h-1.1c.1.1.1-5.6.1-5.6zm6.3-2.2h1.1v7.9h-1.1V16zm2.6 5c-.1-1 .4-2 1.2-2.5.8-.5 1.9-.5 2.7 0 .8.5 1.3 1.5 1.2 2.5.1 1-.4 2-1.2 2.5-.8.5-1.9.5-2.7 0-.9-.5-1.3-1.4-1.2-2.5zm4 0c0-1.2-.5-1.9-1.4-1.9-.9 0-1.4.7-1.4 1.9s.5 2 1.4 2c.8 0 1.4-.7 1.4-2zm2.2 1.3c0-1 .7-1.6 2-1.7l1.5-.1V20c0-.6-.4-.9-1.1-.9-.6 0-1 .2-1.1.6h-1c.1-1 1-1.6 2.2-1.6 1.4 0 2.1.7 2.1 1.9v3.9h-1v-.8h-.1c-.3.6-1 .9-1.6.9-.5 0-.9-.1-1.3-.4-.4-.4-.6-.8-.6-1.3zm3.5-.5v-.5l-1.3.1c-.7.1-1.1.3-1.1.8s.4.8 1 .8c.3 0 .7-.1.9-.3.3-.2.4-.5.5-.9zm2.4-.8c0-1.8.9-2.9 2.2-2.9.7 0 1.3.4 1.7 1h.1V16h1.1v7.9h-1V23h-.1c-.3.6-1 1-1.7 1-1.4 0-2.3-1.2-2.3-3zm1.1 0c0 1.2.5 1.9 1.4 1.9.9 0 1.5-.7 1.5-1.9s-.6-1.9-1.5-1.9c-.8 0-1.4.7-1.4 1.9zm8.4 0c-.1-1 .4-2 1.2-2.5.8-.5 1.9-.5 2.7 0 .8.5 1.3 1.5 1.2 2.5.1 1-.4 2-1.2 2.5-.8.5-1.9.5-2.7 0-.8-.5-1.3-1.4-1.2-2.5zm4 0c0-1.2-.5-1.9-1.4-1.9-.9 0-1.4.7-1.4 1.9s.5 2 1.4 2c.9 0 1.4-.7 1.4-2zm2.5-2.8h1v.9h.1c.3-.7.9-1.1 1.6-1 .5 0 1.1.2 1.4.6.4.4.5 1 .5 1.5v3.7h-1.1v-3.4c0-.9-.4-1.4-1.2-1.4-.4 0-.7.1-1 .4-.2.3-.4.7-.3 1v3.3h-1.1l.1-5.6zm10.6-1.4v1.4h1.2v.9h-1.2V22c0 .6.2.9.8.9h.4v.9c-.2 0-.4.1-.6.1-1.2 0-1.7-.4-1.7-1.5v-3.2h-.9v-.9h.9v-1.4l1.1-.1zm2.7-.8h1.1v3.1h.1c.3-.7.9-1.1 1.6-1 .5 0 1.1.2 1.4.6.4.4.5 1 .5 1.5v3.7h-1.1v-3.4c0-.9-.4-1.4-1.2-1.4-.4 0-.7.1-1 .4-.3.3-.4.7-.4 1v3.3H135V16h.1zm10.8 6.3c-.3 1.1-1.3 1.8-2.3 1.6-.7 0-1.4-.3-1.9-.9-.5-.6-.7-1.3-.6-2.1-.1-.7.1-1.5.6-2.1.5-.6 1.2-.9 1.9-.9 1.5 0 2.4 1.1 2.4 2.9v.4h-3.8v.1c0 .4.1.8.4 1.1.3.3.7.5 1.1.5.5.1 1-.2 1.3-.7-.1.1.9.1.9.1zm-3.7-1.8h2.7c0-.4-.1-.8-.4-1-.2-.3-.6-.4-1-.4s-.7.2-1 .4c-.2.3-.3.6-.3 1zm-91.7 9.3c0-2 1.1-3.9 2.8-5-1.1-1.6-2.8-2.5-4.7-2.6-2-.2-3.9 1.2-4.9 1.2-1 0-2.6-1.2-4.3-1.1-2.2.1-4.2 1.3-5.3 3.3-2.3 4-.6 9.9 1.6 13.1 1.1 1.6 2.4 3.3 4.1 3.3 1.6-.1 2.3-1.1 4.2-1.1 2 0 2.5 1.1 4.3 1 1.8 0 2.9-1.6 3.9-3.2.8-1.1 1.4-2.4 1.8-3.7-2.1-.8-3.5-2.9-3.5-5.2zm-3.2-9.6c1-1.2 1.4-2.7 1.3-4.2-1.5.2-2.8.9-3.8 2s-1.5 2.5-1.4 4c1.6 0 3-.7 3.9-1.8z" fill="#fff"/></svg>