<svg width="41" height="62" fill="none" xmlns="http://www.w3.org/2000/svg"><path fill-rule="evenodd" clip-rule="evenodd" d="M9.1 3.43l5.293-2.032 3.387 8.822-5.293 2.032L9.1 3.43z" fill="#0CC" stroke="#173753" stroke-width="2.722" stroke-linecap="round" stroke-linejoin="round"/><path fill-rule="evenodd" clip-rule="evenodd" d="M21.278 9.531c8.142 0 14.742 6.6 14.742 14.742 0 2.014-.404 3.933-1.135 5.682L32.401 51.76a9.073 9.073 0 01-9.014 8.045h-5.352a9.073 9.073 0 01-9.014-8.045L6.536 29.943h1.13a14.69 14.69 0 01-1.13-5.67c0-8.142 6.6-14.742 14.742-14.742z" fill="#E5F9F9" stroke="#0F2336" stroke-width="2.722" stroke-linecap="round" stroke-linejoin="round"/><path fill-rule="evenodd" clip-rule="evenodd" d="M23.557 42.543c3.777 2.516 7.09 3.933 9.941 4.252l-.469 4.684a9.88 9.88 0 01-9.83 8.896h-5.13a9.88 9.88 0 01-9.83-8.896l-.99-9.882c5.048-3.25 10.484-2.935 16.308.946z" fill="#00C9C9"/><path clip-rule="evenodd" d="M21.278 9.531c8.142 0 14.742 6.6 14.742 14.742 0 2.014-.404 3.933-1.135 5.682L32.401 51.76a9.073 9.073 0 01-9.014 8.045h-5.352a9.073 9.073 0 01-9.014-8.045L6.536 29.943h1.13a14.69 14.69 0 01-1.13-5.67c0-8.142 6.6-14.742 14.742-14.742v0z" stroke="#173753" stroke-width="2.722" stroke-linecap="round" stroke-linejoin="round"/><path d="M36.587 23.139H4.835A2.835 2.835 0 002 25.974v1.134a2.835 2.835 0 002.835 2.835h31.752a2.835 2.835 0 002.835-2.835v-1.134a2.835 2.835 0 00-2.835-2.835z" fill="#E5F9F9" stroke="#173753" stroke-width="2.722" stroke-linecap="round" stroke-linejoin="round"/></svg>