<svg width="57" height="57" fill="none" xmlns="http://www.w3.org/2000/svg"><path d="M28.75 55C43.248 55 55 43.248 55 28.75S43.248 2.5 28.75 2.5 2.5 14.252 2.5 28.75 14.252 55 28.75 55z" fill="#0CC" stroke="#173753" stroke-width="3.402" stroke-linecap="round" stroke-linejoin="round"/><path d="M28.875 47.25c10.148 0 18.375-8.227 18.375-18.375S39.023 10.5 28.875 10.5 10.5 18.727 10.5 28.875 18.727 47.25 28.875 47.25z" fill="#E5F9F9"/><path d="M23.1 29.925c2 0 3.475-1.325 3.475-3.3v-3.15c0-1.975-1.475-3.3-3.475-3.3s-3.475 1.325-3.475 3.3v3.15c0 1.975 1.475 3.3 3.475 3.3zm.95 7.425l10.5-14.925-1.95-1.4L22.125 35.95l1.925 1.4zm-.95-9.475c-.725 0-1.25-.575-1.25-1.3v-3.05c0-.725.525-1.275 1.25-1.275s1.275.575 1.275 1.275v3.05c0 .725-.55 1.3-1.275 1.3zm10.45 10.45c2 0 3.475-1.325 3.475-3.3v-3.15c0-1.975-1.475-3.3-3.475-3.3s-3.45 1.325-3.45 3.3v3.15c0 1.975 1.45 3.3 3.45 3.3zm0-2.05c-.725 0-1.225-.575-1.225-1.3v-3.05c0-.725.5-1.275 1.225-1.275.725 0 1.275.575 1.275 1.275v3.05c0 .725-.55 1.3-1.275 1.3z" fill="#173753"/></svg>