<svg width="155" height="253" fill="none" xmlns="http://www.w3.org/2000/svg"><mask id="a" maskUnits="userSpaceOnUse" x="28" y="0" width="161" height="195"><path d="M28.308 0H188v194.789H28.307V0z" fill="#fff"/></mask><g mask="url(#a)" fill-rule="evenodd" clip-rule="evenodd"><path d="M154.409 190.425c29.045-19.93 35.063-56.151 33.315-88.594-.291-5.417.235-11.137-2.57-15.85-2.809-4.708-9.215-7.855-14.294-5.49-4.213 1.965-5.981 6.674-8.288 10.584-3.067 5.202-7.701 9.54-13.196 12.354-3.61 1.85-8.095 3.017-11.726 1.196-4.978-2.498-5.674-8.945-5.736-14.337-.116-10.045-.231-20.09-.344-30.136-.062-5.389-.144-10.891-2.006-15.978-1.861-5.087-5.856-9.773-11.294-11.123-5.437-1.35-12.074 1.714-13.123 7.008-.436 2.203.077 4.475-.041 6.714-.118 2.24-1.173 4.732-3.405 5.391-2.26.67-4.563-.82-6.292-2.373-5.97-5.345-10.08-12.29-13.928-19.201-3.85-6.911-7.593-13.989-13.028-19.84C63.022 4.903 55.568.318 47.412.012 39.257-.29 30.662 4.611 28.74 12.22c-1.928 7.633 2.887 15.265 8.091 21.334C44.55 42.557 53.631 50.483 63.7 57c1.815 1.179 3.783 2.449 4.505 4.434 1.299 3.574-2.23 7.2-5.952 8.44-4.218 1.408-8.824 1.064-13.252 1.632-4.428.567-9.198 2.498-10.806 6.496-2.23 5.546 2.736 11.24 7.588 14.946 9.72 7.418 20.768 13.223 32.512 17.084 4.21 1.384 8.636 2.585 12.06 5.318 3.426 2.73 5.55 7.539 3.579 11.368-1.971 3.835-7.183 5.133-11.579 4.432-4.395-.698-8.362-2.889-12.565-4.313-7.867-2.671-17.954-1.998-22.846 4.484-3.216 4.26-3.4 10.125-1.646 15.112 1.753 4.989 5.207 9.253 8.865 13.182 12.781 13.724 29.022 24.675 47.264 30.338 18.24 5.665 35.073 7.007 52.983.472z" fill="#F3AF47"/><path d="M157.203 239.662c.545-7.235.14-11.303-1.361-24.225-1.467-12.917-4.708-28.147-10.061-44.531-5.321-16.397-12.713-33.911-21.101-51.975-2.116-4.506-4.203-8.961-6.263-13.352-2.067-4.377-4.117-8.719-6.395-12.847-4.519-8.276-9.524-15.903-14.513-23.001-4.985-7.104-9.988-13.673-14.712-19.78-4.74-6.099-9.271-11.705-13.627-16.646-8.686-9.918-16.665-17.11-22.356-21.834a183.775 183.775 0 00-6.659-5.32l-1.773-1.333c-.404-.295-.615-.44-.628-.427-.012.016.178.186.561.507.424.35.992.816 1.708 1.408a293.468 293.468 0 016.526 5.46 208.376 208.376 0 0122.056 21.998c4.31 4.956 8.795 10.575 13.498 16.689 4.69 6.125 9.661 12.7 14.613 19.797 4.953 7.095 9.923 14.705 14.403 22.942 2.261 4.11 4.286 8.414 6.356 12.804 2.054 4.388 4.14 8.843 6.254 13.346 8.381 18.048 15.782 35.508 21.139 51.843 5.386 16.32 8.686 31.471 10.242 44.331 1.589 12.866 2.108 16.892 1.687 24.118" fill="#263238"/><path d="M110.222 90.757c.061.012.215-.813.444-2.314.236-1.496.51-3.675.813-6.372.612-5.39 1.225-12.867 1.871-21.112.648-8.252 1.355-15.698 2.038-21.063.337-2.683.628-4.854.846-6.35.212-1.498.3-2.336.237-2.35-.06-.015-.262.796-.581 2.273-.326 1.477-.714 3.637-1.13 6.317-.85 5.358-1.662 12.822-2.308 21.082-.62 8.139-1.179 15.501-1.609 21.128-.207 2.54-.383 4.682-.526 6.399-.12 1.51-.157 2.352-.095 2.362z" fill="#263238"/><path d="M37.754 78.95c-.001.068 1.029.165 2.886.283 1.855.13 4.54.301 7.852.615 6.627.579 15.748 1.685 25.76 3.331 10.01 1.662 19.002 3.538 25.463 5.075 3.24.747 5.843 1.418 7.648 1.873 1.799.46 2.805.685 2.829.618.02-.066-.949-.416-2.719-.994a139.948 139.948 0 00-7.577-2.186c-6.435-1.719-15.435-3.711-25.474-5.38-10.04-1.648-19.212-2.647-25.873-3.045-3.329-.225-6.03-.29-7.895-.296-1.868.002-2.899.036-2.9.106zm107.089 89.237c.035.014.194-.282.478-.855l1.186-2.534c1.018-2.207 2.407-5.434 4.067-9.443 3.33-8.018 7.565-19.233 12.067-31.667 4.507-12.44 8.628-23.679 11.778-31.75 1.545-3.928 2.816-7.154 3.762-9.554l1.007-2.605c.219-.599.319-.92.287-.935-.036-.011-.198.282-.479.857l-1.184 2.533c-1.02 2.203-2.408 5.434-4.071 9.442-3.328 8.016-7.562 19.231-12.068 31.672-4.503 12.437-8.626 23.675-11.775 31.749-1.546 3.921-2.816 7.153-3.759 9.548-.405 1.043-.735 1.903-1.009 2.607-.22.6-.32.92-.287.935z" fill="#263238"/><path d="M47.203 138.417c-.01.036.325.166.97.383.763.242 1.7.539 2.837.902l10.455 3.204c8.829 2.709 20.978 6.592 34.397 10.897 13.424 4.311 25.623 8.083 34.507 10.609 4.444 1.264 8.048 2.251 10.552 2.882 1.161.284 2.114.517 2.891.709.662.15 1.016.213 1.024.175.01-.035-.325-.164-.969-.383l-2.835-.899-10.455-3.204c-8.828-2.71-20.98-6.592-34.403-10.901-13.419-4.308-25.615-8.081-34.503-10.606-4.441-1.266-8.046-2.252-10.553-2.884l-2.89-.709c-.662-.149-1.014-.21-1.025-.175z" fill="#263238"/></g><mask id="b" maskUnits="userSpaceOnUse" x="0" y="117" width="179" height="172"><path d="M81.368 117.532L0 183.782l96.92 104.427 81.367-66.25-96.919-104.427z" fill="#fff"/></mask><g mask="url(#b)"><path fill-rule="evenodd" clip-rule="evenodd" d="M161.152 230.156c2.57-22.935-14.271-44.478-32.637-60.698-3.064-2.706-5.92-5.928-9.76-7.185-3.841-1.253-8.49-.142-9.545 3.285-.877 2.84.86 6.066 1.917 9.106 1.406 4.042 1.623 8.308.618 12.145-.658 2.522-2.09 5.065-4.745 5.674-3.642.838-7.452-2.235-10.398-5.027-5.493-5.209-10.985-10.413-16.472-15.62-2.947-2.791-5.964-5.637-9.572-7.495-3.61-1.859-7.984-2.592-11.216-.957-3.23 1.637-4.624 6.099-2.241 9.319.993 1.342 2.457 2.309 3.616 3.532 1.158 1.222 2.022 2.979 1.35 4.286-.675 1.323-2.541 1.535-4.176 1.468-5.64-.226-11.29-2.09-16.798-4.048-5.514-1.959-11.067-4.05-16.73-4.771-5.668-.72-11.576.096-15.491 3.445-3.917 3.354-5.215 9.619-1.98 14.427 3.245 4.823 9.593 6.742 15.27 7.678 8.421 1.385 16.89 1.623 25.05.697 1.472-.166 3.062-.349 4.471.381 2.532 1.309 2.873 4.724 1.833 6.978-1.179 2.552-3.486 4.356-5.212 6.559-1.733 2.202-2.88 5.266-1.453 8.052 1.976 3.862 7.342 4.704 11.58 4.551 8.483-.304 16.708-2.023 24.2-5.061 2.684-1.089 5.369-2.368 8.422-2.415 3.056-.045 6.636 1.556 7.8 4.407 1.171 2.855-.521 5.781-2.924 7.306-2.4 1.53-5.409 2.089-8.114 3.155-5.063 1.991-9.338 6.687-8.08 12.183.829 3.616 3.918 6.762 7.426 8.616 3.504 1.855 7.403 2.598 11.21 3.08 13.306 1.674 26.705.411 38.161-4.482 11.455-4.892 19.921-11.44 24.62-22.571z" fill="#E8505B"/></g><mask id="c" maskUnits="userSpaceOnUse" x="0" y="117" width="179" height="172"><path d="M81.368 117.532L0 183.782l96.92 104.427 81.367-66.25-96.919-104.427z" fill="#fff"/></mask><g mask="url(#c)"><path fill-rule="evenodd" clip-rule="evenodd" d="M161.152 230.156c2.57-22.935-14.271-44.478-32.637-60.698-3.064-2.706-5.92-5.928-9.76-7.185-3.841-1.253-8.49-.142-9.545 3.285-.877 2.84.86 6.066 1.917 9.106 1.406 4.042 1.623 8.308.618 12.145-.658 2.522-2.09 5.065-4.745 5.674-3.642.838-7.452-2.235-10.398-5.027-5.493-5.209-10.985-10.413-16.472-15.62-2.947-2.791-5.964-5.637-9.572-7.495-3.61-1.859-7.984-2.592-11.216-.957-3.23 1.637-4.624 6.099-2.241 9.319.993 1.342 2.457 2.309 3.616 3.532 1.158 1.222 2.022 2.979 1.35 4.286-.675 1.323-2.541 1.535-4.176 1.468-5.64-.226-11.29-2.09-16.798-4.048-5.514-1.959-11.067-4.05-16.73-4.771-5.668-.72-11.576.096-15.491 3.445-3.917 3.354-5.215 9.619-1.98 14.427 3.245 4.823 9.593 6.742 15.27 7.678 8.421 1.385 16.89 1.623 25.05.697 1.472-.166 3.062-.349 4.471.381 2.532 1.309 2.873 4.724 1.833 6.978-1.179 2.552-3.486 4.356-5.212 6.559-1.733 2.202-2.88 5.266-1.453 8.052 1.976 3.862 7.342 4.704 11.58 4.551 8.483-.304 16.708-2.023 24.2-5.061 2.684-1.089 5.369-2.368 8.422-2.415 3.056-.045 6.636 1.556 7.8 4.407 1.171 2.855-.521 5.781-2.924 7.306-2.4 1.53-5.409 2.089-8.114 3.155-5.063 1.991-9.338 6.687-8.08 12.183.829 3.616 3.918 6.762 7.426 8.616 3.504 1.855 7.403 2.598 11.21 3.08 13.306 1.674 26.705.411 38.161-4.482 11.455-4.892 19.921-11.44 24.62-22.571z" fill="#F8CD99"/><mask id="d" maskUnits="userSpaceOnUse" x="4" y="132" width="190" height="187"><path d="M69.268 132.124l-64.67 52.708L128.557 318.53l64.671-52.708-123.96-133.698z" fill="#fff"/></mask><g mask="url(#d)"><path fill-rule="evenodd" clip-rule="evenodd" d="M4.598 184.833c.004.012.182.021.522.024.382.002.885.001 1.527.007 1.34-.002 3.313-.005 5.865.06 5.1.118 12.529.532 21.724 2.044 4.596.737 9.626 1.747 15.02 2.921 5.392 1.184 11.151 2.482 17.185 4.061 6.03 1.577 12.344 3.41 18.771 5.778 3.217 1.171 6.433 2.542 9.716 3.938 3.277 1.403 6.6 2.827 9.961 4.264 13.437 5.798 26.116 11.706 37.269 17.897 11.159 6.172 20.754 12.622 28.332 18.627 7.599 5.993 13.185 11.48 16.859 15.404 1.828 1.972 3.22 3.526 4.126 4.606l1.055 1.214c.241.272.37.408.378.404.009-.008-.098-.155-.324-.441l-.999-1.251c-.874-1.108-2.235-2.689-4.041-4.691-3.621-3.979-9.178-9.538-16.767-15.598-7.569-6.068-17.176-12.589-28.355-18.808-11.172-6.238-23.875-12.179-37.323-17.979-3.363-1.441-6.69-2.862-9.968-4.263-3.275-1.392-6.522-2.772-9.755-3.944-6.47-2.371-12.808-4.202-18.856-5.765-6.05-1.564-11.82-2.847-17.22-4.008-5.403-1.148-10.447-2.131-15.056-2.846-9.225-1.453-16.673-1.795-21.768-1.83-2.552-.025-4.523.019-5.853.067l-1.514.064c-.34.016-.513.03-.512.043" fill="#263238"/></g><path fill-rule="evenodd" clip-rule="evenodd" d="M87.39 198.338c.06-.043-.275-.603-.937-1.58-.653-.981-1.669-2.354-2.962-4.02-2.572-3.337-6.357-7.773-10.564-12.643-4.207-4.87-7.889-9.368-10.378-12.755a145.79 145.79 0 01-2.917-4.032c-.676-.962-1.083-1.473-1.15-1.43-.061.042.218.635.786 1.674.559 1.044 1.458 2.499 2.632 4.251 2.334 3.517 5.93 8.111 10.142 12.987 4.166 4.786 7.94 9.119 10.82 12.431 1.283 1.507 2.37 2.777 3.239 3.797.773.893 1.227 1.367 1.288 1.32zm-37.488 25.377c.026.023.531-.361 1.418-1.078.89-.711 2.174-1.748 3.797-2.989 3.226-2.499 7.794-5.83 12.97-9.327 5.186-3.488 9.992-6.482 13.522-8.567 1.76-1.053 3.2-1.873 4.195-2.445.998-.567 1.54-.899 1.525-.932-.017-.032-.593.237-1.62.75a99.58 99.58 0 00-4.288 2.301c-3.588 2.009-8.444 4.963-13.645 8.462-5.191 3.507-9.737 6.896-12.91 9.478a85.813 85.813 0 00-3.692 3.12c-.845.766-1.298 1.2-1.272 1.227zm95.169-1.436c.024-.007-.058-.233-.234-.653l-.802-1.833c-.706-1.589-1.786-3.87-3.157-6.676-2.74-5.614-6.768-13.281-11.327-21.699-4.56-8.419-8.652-16.05-11.505-21.612l-3.362-6.6c-.367-.717-.673-1.305-.921-1.792-.222-.407-.344-.616-.369-.611-.022.011.06.235.237.655.214.495.48 1.099.8 1.831.705 1.59 1.786 3.871 3.156 6.677 2.741 5.614 6.767 13.282 11.328 21.702 4.557 8.416 8.651 16.046 11.505 21.612 1.38 2.71 2.518 4.939 3.359 6.595.371.717.673 1.308.926 1.794.22.406.344.617.367.61" fill="#263238"/><path fill-rule="evenodd" clip-rule="evenodd" d="M80.814 248.964c.016.022.247-.062.675-.241l1.858-.821c1.7-.773 3.994-1.815 6.783-3.085 5.732-2.604 13.697-6.105 22.509-9.962 8.816-3.859 16.748-7.439 22.406-10.164 2.831-1.364 5.107-2.489 6.659-3.298.712-.38 1.3-.69 1.777-.944.403-.223.609-.354.594-.376-.016-.021-.247.063-.678.241-.497.222-1.111.495-1.856.824l-6.784 3.081c-5.726 2.606-13.696 6.109-22.512 9.967-8.811 3.855-16.742 7.436-22.402 10.16-2.832 1.363-5.106 2.488-6.658 3.298-.711.381-1.3.691-1.78.945-.4.223-.606.351-.59.375z" fill="#263238"/></g></svg>