<svg width="172" height="336" fill="none" xmlns="http://www.w3.org/2000/svg"><mask id="a" maskUnits="userSpaceOnUse" x="-111" y="0" width="283" height="336"><path d="M171.383 43.886L-54.39 0-111 291.236l225.772 43.886 56.611-291.236z" fill="#fff"/></mask><g mask="url(#a)" fill-rule="evenodd" clip-rule="evenodd"><path d="M-62.24 293.942c-35.27-37.779-33.252-93.59-21.353-141.616 1.986-8.018 2.905-16.716 8.242-22.989 5.337-6.268 15.31-9.215 21.803-4.28 5.386 4.093 6.515 11.621 8.641 18.1 2.824 8.62 8.116 16.38 15.066 22.097 4.565 3.757 10.567 6.737 16.23 5.012 7.763-2.367 10.623-11.814 12.278-19.86 3.082-14.989 6.164-29.975 9.243-44.963 1.655-8.038 3.368-16.245 7.48-23.338 4.108-7.094 11.119-13.004 19.199-13.527 8.08-.522 16.573 5.883 16.516 14.086-.023 3.412-1.41 6.668-1.892 10.049-.486 3.381.283 7.397 3.247 8.995 3 1.623 6.688.027 9.586-1.818 9.99-6.351 17.821-15.606 25.27-24.882 7.452-9.276 14.801-18.83 24.184-26.083 9.38-7.25 21.251-12.055 32.869-10.27 11.617 1.785 22.344 11.477 22.848 23.383.509 11.942-8.519 22.03-17.639 29.672a182.912 182.912 0 01-44.797 27.672c-2.908 1.262-6.06 2.621-7.66 5.39-2.874 4.987 1.062 11.378 5.965 14.256 5.554 3.264 12.166 4.015 18.26 6.081 6.095 2.063 12.28 6.263 13.388 12.682 1.542 8.904-7.134 16.055-15.07 20.26-15.895 8.422-33.2 14.064-50.93 16.61-6.353.912-12.962 1.492-18.597 4.634-5.636 3.142-10.035 9.752-8.362 16.016 1.673 6.274 8.663 9.648 15.082 9.807 6.416.164 12.662-2.021 19.018-2.996 11.898-1.832 25.964 1.95 30.995 12.985 3.308 7.252 1.866 16.072-2.065 23.045-3.929 6.978-10.05 12.405-16.363 17.273-22.058 17.006-48.203 28.918-75.64 32.372-27.432 3.455-51.62.837-75.041-13.856" fill="#0CC"/><path d="M-80.5 366.792c1.332-10.967 3.086-16.937 8.964-35.846 5.829-18.908 14.837-40.789 27.168-63.815 12.286-23.054 27.827-47.208 44.936-71.911 4.3-6.156 8.547-12.244 12.735-18.241 4.194-5.977 8.353-11.905 12.775-17.452 8.794-11.132 18.086-21.16 27.202-30.401 9.113-9.251 18.096-17.697 26.547-25.53 8.478-7.816 16.51-14.954 24.105-21.143 15.162-12.442 28.532-21.003 37.95-26.5a267.393 267.393 0 0110.963-6.126c1.219-.632 2.171-1.13 2.893-1.504.656-.33.997-.489 1.011-.465.013.026-.305.229-.94.602-.701.409-1.638.949-2.824 1.636a429.252 429.252 0 00-10.813 6.37c-9.314 5.652-22.546 14.321-37.577 26.828-7.533 6.226-15.507 13.395-23.933 21.244-8.41 7.869-17.347 16.333-26.41 25.583-9.066 9.249-18.304 19.26-27.033 30.343-4.39 5.525-8.503 11.404-12.705 17.398-4.181 5.997-8.424 12.083-12.722 18.238-17.093 24.68-32.631 48.749-44.952 71.701-12.357 22.919-21.427 44.667-27.363 63.465-5.988 18.801-7.89 24.678-9.394 35.597" fill="#263238"/><path d="M29.195 157.069c-.089.001-.066-1.276.045-3.581.102-2.302.348-5.634.703-9.751.702-8.227 2.01-19.575 3.49-32.081 1.483-12.513 2.647-23.841 3.24-32.05.304-4.106.524-7.43.651-9.728.135-2.299.256-3.574.346-3.58.09-.003.142 1.264.162 3.56.032 2.299-.048 5.635-.239 9.756-.356 8.243-1.378 19.627-2.863 32.154-1.49 12.339-2.839 23.5-3.867 32.031-.444 3.855-.817 7.105-1.114 9.712-.27 2.292-.46 3.561-.554 3.558z" fill="#263238"/><path d="M135.081 159.331c-.018.103-1.503-.033-4.162-.368-2.661-.317-6.507-.799-11.281-1.241-9.536-.954-22.753-1.807-37.387-2.097-14.633-.266-27.891.069-37.474.59-4.797.226-8.672.515-11.355.699-2.68.195-4.166.253-4.18.146-.009-.104 1.461-.361 4.133-.74 2.669-.365 6.546-.818 11.348-1.186 9.596-.8 22.897-1.305 37.577-1.041 14.673.293 27.932 1.32 37.464 2.556a171.24 171.24 0 0111.249 1.728c2.638.515 4.086.849 4.068.954zm-30.641 86.314c.002.056-.509.159-1.484.306-1.148.152-2.561.337-4.27.569l-15.715 1.916c-13.267 1.626-31.573 4.091-51.794 6.841-20.234 2.756-38.575 5.042-51.87 6.378-6.65.668-12.032 1.155-15.756 1.41-1.723.105-3.14.191-4.293.266-.979.042-1.498.037-1.5-.02-.003-.056.507-.156 1.483-.306l4.27-.566c3.937-.482 9.247-1.127 15.711-1.917 13.269-1.625 31.576-4.09 51.806-6.845 20.223-2.754 38.563-5.041 51.863-6.376 6.647-.672 12.029-1.154 15.758-1.409 1.72-.106 3.135-.195 4.29-.267.981-.042 1.494-.036 1.501.02z" fill="#263238"/></g></svg>