<svg width="128" height="82" fill="none" xmlns="http://www.w3.org/2000/svg"><path fill-rule="evenodd" clip-rule="evenodd" d="M63.8 81.887c35.14 0 63.8-1.977 63.8-4.4 0-2.424-28.66-4.4-63.8-4.4S0 75.063 0 77.487c0 2.423 28.66 4.4 63.8 4.4z" fill="#E0E3E6"/><path fill-rule="evenodd" clip-rule="evenodd" d="M25.153 70.863h75.967V24.287H25.153v46.576z" fill="#F0F1F1"/><path fill-rule="evenodd" clip-rule="evenodd" d="M93.551 69.927H28.246c-.68 0-1.437-.08-2.156-.066V25.222h71.936c.68 0 1.438.08 2.157.066v44.64H93.55h.001zm7.569-46.576H34.504c-3.061 0-6.156-.13-9.215 0-.045.002-.09 0-.136 0a.95.95 0 00-.936.936v46.576c0 .505.43.935.936.935h66.616c3.061 0 6.155.131 9.215 0 .045-.002.09 0 .136 0 .274 0 .483-.1.632-.25l.032-.03.017-.018a.86.86 0 00.254-.637V24.287a.949.949 0 00-.935-.936z" fill="#292C6A"/><mask id="a" maskUnits="userSpaceOnUse" x="18" y="0" width="90" height="78"><path d="M18.486 77.831h89.367V.297H18.486v77.534z" fill="#fff"/></mask><g mask="url(#a)" fill-rule="evenodd" clip-rule="evenodd"><path d="M19.331 75.93h87.496v-5.068H19.331v5.067z" fill="#F0F1F1"/><path d="M98.221 75.897H22.999c-.84 0-1.766-.095-2.642-.066v-4.034h82.982c.84 0 1.766.096 2.643.066v4.033h-7.761v.001zm8.696-5.97H30.206c-3.534 0-7.1-.14-10.633 0-.05.002-.101 0-.152 0a.949.949 0 00-.935.935v5.971a.95.95 0 00.935.935h76.711c3.535 0 7.101.141 10.634 0 .05-.002.1 0 .151 0a.949.949 0 00.936-.935v-5.97a.95.95 0 00-.936-.936z" fill="#292C6A"/><path d="M76.661 70.862h17.443V40.004H76.661v30.858z" fill="#39C0C4"/><path d="M78.848 69.927h-1.251V40.94h15.572v28.988H78.848zm15.256-30.859H76.661a.95.95 0 00-.935.936v30.86c0 .504.428.934.935.934h17.443c.275 0 .483-.1.633-.25l.031-.03.018-.019a.864.864 0 00.254-.636v-30.86a.95.95 0 00-.936-.935z" fill="#292C6A"/><path d="M33.361 54.505h34.633v-14.5H33.361v14.5z" fill="#D4DAE0"/><path d="M56.285 53.57H34.296V40.94h32.762v12.63H56.285zm12.644-13.566a.95.95 0 00-.935-.936H33.361a.95.95 0 00-.936.936v14.501a.95.95 0 00.935.936h34.633c.275 0 .484-.1.633-.25l.032-.03.017-.019a.86.86 0 00.254-.637v-14.5z" fill="#292C6A"/><path d="M31.568 24.527l3.835-23.295h10.01l-1.307 23.295s-.375 6.27-6.27 6.27c-5.893 0-6.267-6.27-6.267-6.27h-.001zm25.073 0V1.232h12.536v23.295s-.188 6.27-6.269 6.27c-6.08 0-6.267-6.27-6.267-6.27zm25.073 0l-.375-23.295h10.384l2.527 23.295s-.282 5.333-5.52 6.175c-5.24.842-6.89-3.92-7.016-6.175z" fill="#F0F1F1"/><path d="M106.786 24.527l-4.864-23.295H91.723l2.527 23.295s0 6.27 6.268 6.27 6.268-6.27 6.268-6.27zM45.414 1.232h11.227v23.296s-.653 6.174-6.268 6.268c-5.614.093-6.268-6.268-6.268-6.268l1.309-23.296zm23.762 0l.001 23.296s.282 6.361 6.269 6.268c5.986-.094 6.268-6.268 6.268-6.268l-.375-23.296H69.176zm-33.773 0l-1.65 10.024c-.696 4.232-1.425 8.46-2.09 12.698-.256 1.627-.562 3.106-1.586 4.47-1.145 1.526-2.888 2.31-4.777 2.372-5.801.187-5.817-6.456-5.817-6.456l6.19-23.108h9.73z" fill="#39C0C4"/><path d="M105.326 26.911c-.71 1.662-2.145 2.696-3.94 2.905-2.004.234-4.135-.32-5.254-2.107-.593-.948-.87-2.135-.94-3.015l-.015-.175c.013-1.055-.136-2.15-.294-3.23-.42-4.233-.967-8.462-1.425-12.686l-.698-6.435h8.402l4.12 19.724.567 2.713c-.014.73-.174 1.488-.523 2.306zm-12.065-1.98c-.278 1.364-.835 2.66-1.899 3.6-1.686 1.49-4.643 1.888-6.495.488-1.347-1.018-2.107-2.838-2.218-4.492l-.011-.74v-.002l-.105-6.502-.006-.369c-.08-4.913-.086-9.834-.232-14.746h8.594l1.569 14.462.351 3.237c.173 1.594.329 3.191.5 4.785.003.191.018-.048-.048.278zm-12.562.191c-.045.216-.091.43-.149.643a6.729 6.729 0 01-.644 1.592 4.822 4.822 0 01-3.273 2.382c-3.088.645-5.553-1.056-6.31-4.01-.156-.605-.201-.808-.21-1.226v-.108c.064-1.11 0-2.236 0-3.334V2.167h10.305l.186 11.552.13 8.066v.001l.043 2.68a8.23 8.23 0 01-.025.35v.001l-.007.036c-.014.09-.028.18-.046.268v.001zm-12.464-.469c-.003.06-.011.12-.017.18l-.01.122c0-.01 0-.029-.011.044a8.015 8.015 0 01-.478 1.755c-.657 1.587-1.934 2.7-3.64 3.012-2.24.408-4.533-.344-5.67-2.38-.35-.623-.572-1.304-.716-2.002-.092-.444-.1-.399-.116-.858v-7.699c0-4.884.083-9.776.008-14.66h10.656V18.38l.001 4.228c0 .547-.01 1.083.007 1.618-.003.1-.003.198-.007.297l-.007.132zM51.3 29.777c-3.036.553-5.234-1.426-6.024-4.206a9.501 9.501 0 01-.228-1.013c.144-1.262.135-2.56.205-3.808.095-1.702.19-3.403.287-5.105l.757-13.476h9.409v22.357l-.013.057c-.507 2.394-1.768 4.716-4.393 5.193v.001zm-8.133-5.215a2.095 2.095 0 00-.007.131.508.508 0 00-.018.09 8.893 8.893 0 01-.444 1.69c-.605 1.592-1.793 2.84-3.482 3.24-2.198.522-4.537-.216-5.724-2.183a7.312 7.312 0 01-.841-2.14 8.983 8.983 0 01-.127-.67c-.003-.03-.013-.105-.017-.162l2.532-15.384c.385-2.335.77-4.67 1.153-7.006h8.234l-.686 12.195-.173 3.09-.032.562-.064 1.134-.182 3.257c-.03.51-.072 1.002-.084 1.491l-.034.6-.004.065zm-12.716.77c-.403 1.662-1.265 3.162-2.835 3.958-1.226.62-2.785.774-4.098.343-1.7-.556-2.556-2.203-2.918-3.847-.124-.558-.078-.803-.178-1.338l.044-.162c.304-1.05.567-2.116.85-3.173L24.387 9.65l2.005-7.483h7.914l-1.238 7.52c-.192 1.165-.383 2.33-.578 3.496-.352 2.115-.708 4.23-1.056 6.347-.072.432-.137.868-.2 1.304-.03.177-.06.355-.088.532l-.455 2.76a.911.911 0 00-.058.385c-.056.274-.116.548-.182.82v.001zm77.235-1.068l-4.26-20.397-.604-2.883c-.083-.399-.51-.687-.902-.687H25.674a.954.954 0 00-.903.687l-5.295 19.763c-.283 1.058-.607 2.113-.85 3.18-.189.82.02 1.741.213 2.544.468 1.932 1.578 3.8 3.433 4.668 2.738 1.283 6.347.473 8.291-1.83.394-.467.707-.966.962-1.488.862 1.72 2.311 3.115 4.227 3.642 2.294.632 4.937.2 6.739-1.395.702-.62 1.25-1.406 1.66-2.259.904 1.788 2.382 3.255 4.414 3.73 3.308.773 6.45-.788 7.98-3.694.812 1.64 2.18 2.976 3.978 3.545 2.274.718 5.038.376 6.912-1.146.746-.606 1.327-1.386 1.758-2.244.908 1.77 2.438 3.16 4.5 3.57 3.316.657 6.492-.719 8.014-3.646 1.256 2.452 3.674 4.11 6.751 3.752a7.843 7.843 0 005.716-3.668c.232.474.51.926.846 1.342 1.475 1.825 3.843 2.524 6.128 2.357 3.822-.279 6.557-3.37 6.575-7.18 0-.097-.015-.183-.036-.264" fill="#292C6A"/></g></svg>