<svg width="185" height="60" fill="none" xmlns="http://www.w3.org/2000/svg"><path d="M8 0h169c4.4 0 8 3.6 8 8v44c0 4.4-3.6 8-8 8H8c-4.4 0-8-3.6-8-8V8c0-4.4 3.6-8 8-8z" fill="#240C39"/><path d="M95.7 31.4c-2.5 0-4.6 2.1-4.6 4.6 0 2.5 2.1 4.6 4.6 4.6 2.5 0 4.6-2 4.6-4.6 0-1.2-.5-2.4-1.3-3.3-.9-.9-2.1-1.3-3.3-1.3zm0 7.3c-1.1.1-2.2-.5-2.7-1.6-.5-1-.3-2.3.5-3.1.8-.8 2-1.1 3.1-.7 1.1.4 1.8 1.4 1.8 2.6 0 .7-.2 1.4-.7 1.9-.6.6-1.3.9-2 .9zm-10.1-7.3c-2.5 0-4.6 2.1-4.6 4.6 0 2.5 2.1 4.6 4.6 4.6 2.5 0 4.6-2 4.6-4.6 0-1.2-.5-2.4-1.3-3.3-.9-.9-2.1-1.3-3.3-1.3zm0 7.3c-1.1.1-2.2-.5-2.7-1.6-.5-1-.3-2.3.5-3.1.8-.8 2-1.1 3.1-.7 1.1.4 1.8 1.4 1.8 2.6 0 .7-.2 1.4-.7 1.9-.6.6-1.3.9-2 .9zm-12-5.9v1.9h4.7c-.1.9-.5 1.8-1.1 2.4-.9 1-2.3 1.5-3.6 1.4-2.9 0-5.2-2.3-5.2-5.2 0-2.9 2.3-5.2 5.2-5.2 1.3 0 2.6.5 3.5 1.4l1.4-1.4c-1.3-1.3-3.1-2-4.9-2-2.6-.1-5.1 1.2-6.4 3.5-1.3 2.2-1.3 5 0 7.3 1.3 2.2 3.8 3.6 6.4 3.5 1.9.1 3.7-.6 5-2 1.1-1.2 1.7-2.9 1.7-4.5 0-.4 0-.8-.1-1.2l-6.6.1zm49 1.5c-.6-1.7-2.1-2.9-3.9-2.9-1.2 0-2.3.5-3.2 1.4-.8.9-1.2 2-1.2 3.2 0 1.2.4 2.4 1.3 3.2.9.9 2 1.3 3.3 1.3 1.5 0 3-.7 3.8-2l-1.6-1.1c-.5.8-1.3 1.3-2.3 1.3-1 0-1.8-.5-2.2-1.4l6.2-2.5-.2-.5zm-6.2 1.5c0-.7.2-1.3.6-1.8.5-.5 1.1-.8 1.8-.8s1.4.3 1.7 1l-4.1 1.6zm-5 4.4h2V26.8h-2v13.4zm-3.3-7.8c-.7-.7-1.6-1.1-2.5-1.1-2.5.1-4.4 2.1-4.4 4.6 0 2.5 1.9 4.5 4.4 4.6.9 0 1.8-.4 2.4-1.1h.1v.7c0 1.8-.9 2.7-2.5 2.7-1 0-1.9-.7-2.3-1.6l-1.8.7c.7 1.6 2.3 2.7 4.1 2.7 2.4 0 4.3-1.4 4.3-4.8v-8.1H108l.1.7zm-2.4 6.3c-1.4-.1-2.6-1.3-2.6-2.8 0-1.4 1.1-2.7 2.6-2.8.7 0 1.4.3 1.8.9.5.5.7 1.2.6 1.9.1.7-.2 1.4-.6 1.9-.4.6-1.1.9-1.8.9zm26.4-11.9h-4.8v13.4h2v-5.1h2.8c1.6.1 3.1-.7 3.9-2 .8-1.3.8-3 0-4.4-.8-1.2-2.3-2-3.9-1.9zm0 6.5h-2.8v-4.6h2.9c1.3 0 2.3 1 2.3 2.3 0 1.3-1.1 2.3-2.4 2.3zm12.5-2c-1.5-.1-2.9.7-3.6 2.1l1.8.7c.4-.7 1.1-1.1 1.8-1 .5-.1 1 .1 1.4.4.4.3.7.8.7 1.3v.2c-.7-.3-1.4-.5-2.1-.5-1.9 0-3.9 1.1-3.9 3 0 .8.4 1.6 1 2.2.6.6 1.5.8 2.3.8 1 .1 2-.4 2.6-1.3h.1v1.1h1.9v-5.2c.1-2.4-1.7-3.7-4-3.8zm-.3 7.4c-.7 0-1.6-.3-1.6-1.1 0-1.1 1.1-1.4 2.2-1.4.6 0 1.3.1 1.8.5-.1 1.1-1.1 2-2.4 2zm11.5-7.1l-2.3 5.8h-.1l-2.4-5.8h-2.2l3.6 8.1-2.1 4.5h2.1l5.5-12.7h-2.1v.1zm-18.2 8.6h2V26.8h-2v13.4z" fill="#fff"/><path d="M73.3 19c0 .8-.3 1.6-.8 2.1-.6.6-1.5 1-2.4 1-1.4 0-2.6-.8-3.1-2.1s-.2-2.7.7-3.7c.6-.6 1.5-1 2.4-1 .5 0 .9.1 1.3.3.4.2.7.4 1 .7l-.6.6c-.4-.5-1.1-.8-1.8-.8s-1.3.3-1.8.8-.7 1.1-.7 1.8c0 1 .6 2 1.5 2.4.9.4 2 .2 2.8-.5.3-.4.5-.8.5-1.3H70v-.8h3.1c.2.2.2.3.2.5zm4.9-2.7h-2.9v2H78v.8h-2.7v2h2.9v.9h-3.8v-6.4h3.8v.7zm3.6 5.7H81v-5.7h-1.8v-.8h4.5v.8h-1.9V22zm5 0v-6.4h.8V22h-.8zm4.6 0h-.8v-5.7h-1.8v-.8h4.5v.8h-1.8V22h-.1zm10.2-.9c-1.3 1.3-3.4 1.3-4.8 0-1.3-1.3-1.3-3.4 0-4.8 1.3-1.3 3.4-1.3 4.8 0 1.3 1.4 1.3 3.5 0 4.8zm-4.1-.5c1 1 2.6 1 3.5 0 1-1 1-2.7 0-3.7s-2.5-1-3.5 0-1 2.7 0 3.7zm6.2 1.4v-6.4h1l3.2 5v-5h.8V22h-.9l-3.3-5.3V22h-.8z" fill="#fff" stroke="#fff" stroke-width=".5"/><path d="M33.3 16.1c-.4.4-.5 1-.5 1.5v23.8c0 .5.1 1.1.5 1.5l.1.1 13.4-13.3v-.3L33.3 16.1z" fill="url(#paint0_linear)"/><path d="M51.2 34.1l-4.4-4.4v-.3l4.4-4.5.1.1 5.3 3c1.5.9 1.5 2.2 0 3.1l-5.3 3h-.1z" fill="url(#paint1_linear)"/><path d="M51.3 34l-4.6-4.5-13.4 13.4c.6.6 1.6.6 2.2.1l15.8-9z" fill="url(#paint2_linear)"/><path d="M51.3 25l-15.8-9c-.7-.5-1.6-.5-2.2.1l13.5 13.4 4.5-4.5z" fill="url(#paint3_linear)"/><path opacity=".2" d="M51.2 33.9l-15.7 8.9c-.6.5-1.5.5-2.2 0l-.1.1.1.1c.6.5 1.5.5 2.2 0l15.8-9-.1-.1z" fill="#000"/><path opacity=".12" d="M33.3 42.7c-.4-.4-.5-1-.5-1.5v.2c0 .5.1 1.1.5 1.5v-.2zm23.3-11.8l-5.4 3 .1.1 5.3-3c.6-.3 1-.9 1.1-1.5-.1.6-.5 1.1-1.1 1.4z" fill="#000"/><path opacity=".25" d="M35.5 16.2l21.1 11.9c.6.3 1 .8 1.1 1.4-.1-.7-.5-1.3-1.1-1.5L35.5 16c-1.5-.9-2.7-.1-2.7 1.6v.2c0-1.7 1.2-2.5 2.7-1.6z" fill="#fff"/><defs><linearGradient id="paint0_linear" x1="41.401" y1="17.428" x2="29.925" y2="28.836" gradientUnits="userSpaceOnUse"><stop stop-color="#00A0FF"/><stop offset=".01" stop-color="#00A1FF"/><stop offset=".26" stop-color="#00BEFF"/><stop offset=".51" stop-color="#00D2FF"/><stop offset=".76" stop-color="#00DFFF"/><stop offset="1" stop-color="#00E3FF"/></linearGradient><linearGradient id="paint1_linear" x1="58.586" y1="29.5" x2="32.426" y2="29.5" gradientUnits="userSpaceOnUse"><stop stop-color="#FFE000"/><stop offset=".41" stop-color="#FFBD00"/><stop offset=".78" stop-color="orange"/><stop offset="1" stop-color="#FF9C00"/></linearGradient><linearGradient id="paint2_linear" x1="47.644" y1="32.584" x2="28.078" y2="52.024" gradientUnits="userSpaceOnUse"><stop stop-color="#FF3A44"/><stop offset="1" stop-color="#C31162"/></linearGradient><linearGradient id="paint3_linear" x1="28.688" y1="15.342" x2="37.42" y2="24.024" gradientUnits="userSpaceOnUse"><stop stop-color="#32A071"/><stop offset=".07" stop-color="#2DA771"/><stop offset=".48" stop-color="#15CF74"/><stop offset=".8" stop-color="#06E775"/><stop offset="1" stop-color="#00F076"/></linearGradient></defs></svg>