<svg width="130" height="47" fill="none" xmlns="http://www.w3.org/2000/svg"><path d="M41.88 20.138v4.277h6.339v17.077h4.434V24.415h6.34v-4.277H41.879zm36.376 1.24c-1.288-.888-3.216-1.36-5.593-1.36-1.071 0-6.35.114-6.572.12l-.838.017v21.337h4.464v-7.739h2.85a10.51 10.51 0 004.891-1.086 6.942 6.942 0 003.278-6.035c0-2.388-.832-4.156-2.48-5.254zm-8.55 3.037c.872 0 2.188-.063 2.73-.063 3.101 0 3.733.95 3.733 2.372.01.831-.37 1.62-1.025 2.132a5.866 5.866 0 01-2.943.569h-2.484l-.013-5.01h.001zm20.504.449a7.876 7.876 0 00-5.797 2.48 8.318 8.318 0 00-2.372 5.965 8.486 8.486 0 002.378 6.006 7.89 7.89 0 005.791 2.473 7.677 7.677 0 004.3-1.25v.687h4.405V25.228l-4.338.904a7.763 7.763 0 00-4.367-1.268zm2.976 5.328a4.417 4.417 0 011.204 3.117 4.457 4.457 0 01-1.204 3.145 3.807 3.807 0 01-5.609 0 4.448 4.448 0 01-1.198-3.151 4.405 4.405 0 011.198-3.116c.71-.8 1.73-1.257 2.802-1.257 1.071 0 2.091.457 2.801 1.257l.006.005zm16.818 1.405l-1.711-.654c-1.539-.569-1.539-.74-1.539-.972 0-.364 0-1.035 1.962-1.035a8.903 8.903 0 014.047.983l1.22.57v-4.59l-.57-.21a13.71 13.71 0 00-4.783-.882c-3.945 0-6.305 1.866-6.305 4.988 0 3.121 2.28 4.242 4.036 4.879l1.836.654c1.779.631 1.95.807 1.95 1.137 0 .467 0 1.245-2.23 1.245a8.92 8.92 0 01-4.72-1.364l-1.288-.74v4.715l.462.24a12.2 12.2 0 005.518 1.25c4.19 0 6.692-1.956 6.692-5.226.029-2.997-2.058-4.056-4.577-4.987zm14.84 0l-1.71-.654c-1.54-.569-1.54-.74-1.54-.972 0-.364 0-1.035 1.961-1.035a8.903 8.903 0 014.047.983l1.22.57v-4.59l-.57-.21a13.71 13.71 0 00-4.783-.882c-3.945 0-6.305 1.866-6.305 4.988 0 3.121 2.281 4.242 4.036 4.879l1.836.654c1.779.631 1.95.807 1.95 1.137 0 .467 0 1.245-2.229 1.245a8.915 8.915 0 01-4.72-1.364l-1.289-.74v4.715l.462.24a12.202 12.202 0 005.518 1.25c4.19 0 6.693-1.956 6.693-5.226.028-2.997-2.03-4.056-4.578-4.987h.001z" fill="#122F53"/><path d="M58.702 41.538a2.317 2.317 0 002.32-2.315 2.317 2.317 0 00-2.32-2.314 2.317 2.317 0 00-2.32 2.314 2.317 2.317 0 002.32 2.315z" fill="url(#paint0_linear)"/><path d="M14.632 45.325c4.323 0 8.292-2.607 8.848-5.811l.899-7.952c-1.688.847-2.232 2.722-5.789 1.266 0 0-3.517-1.914-4.498-2.211-4.865-1.479-9.471 2.483-9.515 2.544l1.278 6.26c.562 3.239 4.502 5.904 8.776 5.904z" fill="url(#paint1_linear)"/><path d="M26.509 18.334a12.17 12.17 0 00-9.054-10.878l.276-2.552 2.196-1.117.087-.044 1.559-.783a1.362 1.362 0 00.607-1.831L21.988.75a1.366 1.366 0 00-1.836-.605l-.47.238-.035.016-4.446 2.202a.805.805 0 00-.466.645l-.412 3.801C7.9 7.068 2.67 12.042 2.213 18.334A2.725 2.725 0 000 21.006v1.28A2.723 2.723 0 002.609 25l1.8 13.905c.362 4.352 3.805 7.635 8.006 7.635h4.126c4.201 0 7.643-3.28 8.001-7.586L26.35 24.98a2.72 2.72 0 002.37-2.689v-1.28a2.726 2.726 0 00-2.211-2.677zM14.36 9.09c5.277 0 9.61 4.047 10.09 9.191h-2.001c-.47-4.049-3.904-7.197-8.086-7.197a8.145 8.145 0 00-8.092 7.198h-2c.478-5.144 4.81-9.191 10.09-9.191zm6.137 9.191h-2.215a4.025 4.025 0 00-3.922-3.103 4.025 4.025 0 00-3.922 3.103H8.224a6.2 6.2 0 016.136-5.262 6.203 6.203 0 016.137 5.262zM5.687 32.436l-.963-7.422h7.615l-.492 4.674c-2.894-.095-4.947 1.44-6.16 2.748zm16.767 6.295c-.27 3.256-2.814 5.712-5.913 5.712h-4.126c-3.1 0-5.643-2.456-5.918-5.762l-.502-3.88c.459-.758 2.32-3.433 5.672-3.4l-.62 5.879c-.08.768.461 1.462 1.212 1.545l.422.047a1.383 1.383 0 001.506-1.245l.577-5.49c.11.05.216.094.327.148 3.863 1.887 6.546 1.32 8.134.492l-.77 5.954zm1.068-8.252c-.52.54-2.928 2.596-7.68.276a12.755 12.755 0 00-.89-.389l.563-5.354h8.714l-.707 5.468zm3.123-8.194a.655.655 0 01-.655.658H2.733a.657.657 0 01-.657-.655v-1.28c0-.361.295-.654.657-.654H25.99c.363 0 .656.293.657.654l-.002 1.277z" fill="#122F53"/><path d="M16.763 40.934a1.167 1.167 0 00-.896 1.387 1.171 1.171 0 002.288-.491 1.169 1.169 0 00-1.392-.896zm.842-2.603a.549.549 0 10.232 1.069.549.549 0 00-.232-1.068zm-7.594 3.344a.409.409 0 10.173.8.409.409 0 00-.173-.8zm4.54-2.613a.775.775 0 10.607 1.394.776.776 0 00-.608-1.394zm-4.616 0a.775.775 0 10.33 1.514.774.774 0 10-.33-1.514zm7.244-2.035a1.13 1.13 0 00.873-.9 1.128 1.128 0 10-2.215.039 1.13 1.13 0 001.343.861zm-5.114 4.464a.774.774 0 10.822 1.314.773.773 0 10-.822-1.314zm7.808-3.955a.777.777 0 001.316-.823.778.778 0 00-1.416.238.77.77 0 00.1.585zm-.103 2.207a.772.772 0 00-.246 1.067.776.776 0 001.316-.82.777.777 0 00-1.07-.247zM9.498 36.538a1.11 1.11 0 00-1.527-.35 1.104 1.104 0 00-.352 1.523 1.11 1.11 0 002.02-.338 1.104 1.104 0 00-.141-.836v.001z" fill="#122F53"/><defs><linearGradient id="paint0_linear" x1="56.388" y1="39.223" x2="61.022" y2="39.223" gradientUnits="userSpaceOnUse"><stop stop-color="#59C4C9"/><stop offset=".37" stop-color="#41B1BE"/><stop offset="1" stop-color="#0F8BA8"/></linearGradient><linearGradient id="paint1_linear" x1="4.577" y1="37.806" x2="24.378" y2="37.806" gradientUnits="userSpaceOnUse"><stop stop-color="#59C4C9"/><stop offset=".37" stop-color="#41B1BE"/><stop offset="1" stop-color="#0F8BA8"/></linearGradient></defs></svg>