<svg width="50" height="50" fill="none" xmlns="http://www.w3.org/2000/svg"><path d="M0 8a8 8 0 018-8h34a8 8 0 018 8v34a8 8 0 01-8 8H8a8 8 0 01-8-8V8z" fill="#F6F7F8"/><g clip-path="url(#clip0)" fill="#00C9C9"><path d="M30.2 33.5V41l-5.3-2.1-5.5 2.1v-7.6c1.4 1.9 3.1 1.5 4.8.7.3-.1.6-.1.9 0 1.9.8 3.7 1.3 5.1-.6zM24.8 16.3c-3 0-5.3 2.4-5.3 5.3 0 3 2.4 5.3 5.3 5.3s5.3-2.4 5.3-5.3-2.3-5.3-5.3-5.3z"/><path d="M36.2 22.1l-.5-.8c-.3-.5-.4-1.1-.3-1.7l.3-1.2c.3-1-.2-2.1-1.2-2.5l-.9-.4c-.6-.3-.9-.8-1.1-1.3l-.4-1.2c-.3-1-1.3-1.6-2.4-1.5l-1 .1c-.6.1-1.2-.1-1.7-.4l-.9-.8c-.8-.6-2-.6-2.8 0l-.7.8c-.4.3-.9.5-1.6.5l-1.1-.2c-1-.1-2 .6-2.4 1.5l-.3 1c-.2.6-.5 1.1-1.1 1.3l-1 .5c-1 .5-1.4 1.5-1.1 2.6l.2 1c.2.6 0 1.1-.2 1.7l-.6 1c-.5.9-.4 2 .4 2.7l.7.7c.5.4.7.9.8 1.5v1.2c.1 1 .8 1.9 1.9 2.1l1 .2c.6.1 1.1.3 1.5.9l.7.9c.6.9 1.7 1.2 2.7.8l.9-.4c.6-.3 1.1-.3 1.7 0l1 .4c1 .4 2.1.1 2.7-.8l.6-.8c.3-.5.8-.8 1.5-.9l1.1-.2c1-.2 1.8-1.1 1.8-2.1l.1-1c0-.6.2-1.2.7-1.6l.8-.8c.6-.8.8-1.9.2-2.8zm-11.3 6.5c-3.9 0-6.9-3.1-6.9-6.9 0-3.8 3-6.9 6.9-6.9 3.8 0 6.9 3.1 6.9 6.9-.1 3.8-3.1 6.9-6.9 6.9z"/></g><defs><clipPath id="clip0"><path fill="#fff" transform="translate(13 10)" d="M0 0h24v31H0z"/></clipPath></defs></svg>