<svg width="50" height="50" fill="none" xmlns="http://www.w3.org/2000/svg"><path d="M0 8a8 8 0 018-8h34a8 8 0 018 8v34a8 8 0 01-8 8H8a8 8 0 01-8-8V8z" fill="#F6F7F8"/><path d="M17.4 10h16.2c3.6 0 6.5 2.9 6.5 6.5v17c0 3.6-2.9 6.5-6.5 6.5H17.4c-3.6 0-6.5-2.9-6.5-6.5v-17c0-3.6 2.9-6.5 6.5-6.5z" stroke="#FF5678" stroke-width="1.3"/><path d="M22 26.2c1.5 0 2.5-1 2.5-2.4v-2.3c0-1.4-1-2.4-2.5-2.4s-2.5 1-2.5 2.4v2.3c0 1.4 1.1 2.4 2.5 2.4zm.9 5.3l7.5-10.7-1.5-1.1-7.5 10.7 1.5 1.1zm-.9-6.9c-.4 0-.8-.3-.8-.8v-2.2c-.1-1 1.6-1 1.5 0v2.2c.1.4-.2.8-.7.8zm7.7 7.6c1.5 0 2.6-1 2.6-2.4v-2.3c0-1.4-1.1-2.4-2.6-2.4s-2.5 1-2.5 2.4v2.3c0 1.4 1.1 2.4 2.5 2.4zm.1-1.6c-.5 0-.8-.4-.8-.8v-2.2c0-.4.3-.8.8-.8s.8.3.8.8v2.2c-.1.5-.4.8-.8.8z" fill="#FF5678"/></svg>