<svg width="50" height="50" fill="none" xmlns="http://www.w3.org/2000/svg"><path d="M0 8a8 8 0 018-8h34a8 8 0 018 8v34a8 8 0 01-8 8H8a8 8 0 01-8-8V8z" fill="#F6F7F8"/><path d="M18.6 22.9c-.1 0-.4-.1-.7-.1h-1.5v2.1h1.5c.5 0 .9-.1 1.1-.3.2-.2.3-.4.3-.8 0-.2-.1-.5-.2-.6-.1-.1-.3-.2-.5-.3zM22.5 22.8c-.1.4-.2.7-.3 1.1l-.6 1.7h2l-.7-1.6c-.2-.5-.3-.9-.4-1.2z" fill="#F8A644"/><path d="M39.5 24.2c0-1.3.9-2.5 2.1-2.9V16c0-1.1-.9-2-2-2H11c-1.1 0-2 .9-2 2v5.3c1.2.4 2.1 1.6 2.1 2.9 0 1.3-.9 2.5-2.1 2.9v6.3c0 1.1.9 2 2 2h28.5c1.1 0 2-.9 2-2v-6.3c-1.1-.4-2-1.6-2-2.9zm-21.6 1.4h-1.5V28h-.8v-5.8h2.2c.4 0 .7 0 .9.1.3 0 .5.1.7.3.2.1.4.3.5.6.1.2.2.5.2.8 0 .5-.2.9-.5 1.3-.3.2-.9.3-1.7.3zm6.5 2.4l-.7-1.8h-2.4l-.7 1.8h-.8l2.2-5.8h.8l2.4 5.8h-.8zm5.6-.8c-.2.3-.4.5-.8.6-.3.2-.7.2-1.1.2-.5 0-1-.1-1.3-.2-.4-.2-.6-.4-.8-.7-.2-.3-.3-.7-.3-1l.7-.1c0 .3.1.5.2.7.1.2.3.3.6.5.3.1.6.2.9.2.3 0 .6 0 .8-.1.2-.1.4-.2.5-.4.1-.2.2-.3.2-.5s-.1-.3-.2-.5c-.1-.1-.3-.3-.5-.3-.2-.1-.5-.2-1-.3-.5-.1-.9-.2-1.1-.4-.3-.1-.5-.3-.6-.5-.1-.2-.2-.5-.2-.7 0-.3.1-.6.3-.8.2-.3.4-.5.7-.6.3-.1.7-.2 1.1-.2.4 0 .8.1 1.1.2.3.1.6.3.8.6.2.3.3.6.3.9l-.7.1c0-.4-.2-.6-.4-.8-.2-.2-.6-.3-1-.3-.5 0-.8.1-1 .3-.2.2-.3.4-.3.6 0 .2.1.4.2.5.1.1.5.3 1.2.4.6.1 1.1.3 1.3.4.3.2.6.4.8.6.2.2.2.5.2.8-.3.3-.4.6-.6.8zm5.5 0c-.2.3-.4.5-.8.6-.3.2-.7.2-1.1.2-.5 0-1-.1-1.3-.2-.4-.2-.6-.4-.8-.7-.2-.3-.3-.7-.3-1l.7-.1c0 .3.1.5.2.7.1.2.3.3.6.5.3.1.6.2.9.2.3 0 .6 0 .8-.1.2-.1.4-.2.5-.4.1-.2.2-.3.2-.5s-.1-.3-.2-.5c-.1-.1-.3-.3-.5-.3-.2-.1-.5-.2-1-.3-.5-.1-.9-.2-1.1-.4-.3-.1-.5-.3-.6-.5-.1-.2-.2-.5-.2-.7 0-.3.1-.6.2-.8.2-.3.4-.5.7-.6.3-.1.7-.2 1.1-.2.4 0 .8.1 1.1.2.3.1.6.3.8.6.2.3.3.6.3.9l-.7.1c0-.4-.2-.6-.4-.8-.2-.2-.6-.3-1-.3-.5 0-.8.1-1 .3-.2.2-.3.4-.3.6 0 .2.1.4.2.5.1.1.5.3 1.2.4.6.1 1.1.3 1.3.4.3.2.6.4.8.6.2.2.2.5.2.8-.3.3-.4.6-.5.8z" fill="#F8A644"/></svg>